<?xml version="1.0" encoding="UTF-8"?>
<svg width="1442px" height="360px" viewBox="0 0 1442 360" version="1.1" xmlns="http://www.w3.org/2000/svg" xmlns:xlink="http://www.w3.org/1999/xlink">
    <title>ruler</title>
    <defs>
        <rect id="path-1" x="0" y="0.478156561" width="1442" height="358"></rect>
    </defs>
    <g id="desktop" stroke="none" stroke-width="1" fill="none" fill-rule="evenodd">
        <g id="Home-Scrolly" transform="translate(0.000000, -2671.000000)">
            <g id="ruler" transform="translate(0.000000, 2671.521843)">
                <mask id="mask-2" fill="white">
                    <use xlink:href="#path-1"></use>
                </mask>
                <use id="Mask" fill-opacity="0" fill="#FFFFFF" xlink:href="#path-1"></use>
                <g opacity="0.1" mask="url(#mask-2)">
                    <g transform="translate(1433.500000, 213.500000) rotate(-90.000000) translate(-1433.500000, -213.500000) translate(1218.975490, -1220.000000)">
                        <g id="Group-19" transform="translate(0.523122, 0.021928)">
                            <polygon id="Fill-1" fill="#81D742" points="0.260125155 2231.56197 138.270102 2231.56197 138.270102 0 0.260125155 0"></polygon>
                            <polygon id="Fill-2" fill="#81D742" points="133.295378 15.0669392 427.804842 15.0669392 427.804842 0 133.295378 0"></polygon>
                            <polygon id="Fill-3" fill="#81D742" points="133.295378 962.215178 427.804842 962.215178 427.804842 947.148239 133.295378 947.148239"></polygon>
                            <polygon id="Fill-4" fill="#81D742" points="133.295378 490.330464 389.805493 490.330464 389.805493 475.263524 133.295378 475.263524"></polygon>
                            <polygon id="Fill-5" fill="#81D742" points="133.295378 256.68207 334.300336 256.68207 334.300336 241.621848 133.295378 241.621848"></polygon>
                            <polygon id="Fill-6" fill="#81D742" points="133.295378 727.015084 334.300336 727.015084 334.300336 711.948145 133.295378 711.948145"></polygon>
                            <polygon id="Fill-7" fill="#81D742" points="133.295378 839.865989 266.24234 839.865989 266.24234 824.79905 133.295378 824.79905"></polygon>
                            <polygon id="Fill-8" fill="#81D742" points="133.295378 604.397202 266.24234 604.397202 266.24234 589.330263 133.295378 589.330263"></polygon>
                            <polygon id="Fill-9" fill="#81D742" points="133.295378 368.928416 266.24234 368.928416 266.24234 353.868194 133.295378 353.868194"></polygon>
                            <polygon id="Fill-10" fill="#81D742" points="133.295378 132.855071 266.24234 132.855071 266.24234 117.788132 133.295378 117.788132"></polygon>
                            <polygon id="Fill-11" fill="#81D742" points="133.295378 76.7318979 211.353584 76.7318979 211.353584 61.6649586 133.295378 61.6649586"></polygon>
                            <polygon id="Fill-12" fill="#81D742" points="133.295378 188.360251 211.353584 188.360251 211.353584 173.300029 133.295378 173.300029"></polygon>
                            <polygon id="Fill-13" fill="#81D742" points="133.295378 312.81196 211.353584 312.81196 211.353584 297.745021 133.295378 297.745021"></polygon>
                            <polygon id="Fill-14" fill="#81D742" points="133.295378 434.200573 211.353584 434.200573 211.353584 419.140351 133.295378 419.140351"></polygon>
                            <polygon id="Fill-15" fill="#81D742" points="133.295378 547.360474 211.353584 547.360474 211.353584 532.300252 133.295378 532.300252"></polygon>
                            <polygon id="Fill-16" fill="#81D742" points="133.295378 669.978356 211.353584 669.978356 211.353584 654.911417 133.295378 654.911417"></polygon>
                            <polygon id="Fill-17" fill="#81D742" points="133.295378 783.433819 211.353584 783.433819 211.353584 768.373597 133.295378 768.373597"></polygon>
                            <polygon id="Fill-18" fill="#81D742" points="133.295378 904.399241 211.353584 904.399241 211.353584 889.325585 133.295378 889.325585"></polygon>
                        </g>
                        <g id="Group-19-Copy" transform="translate(127.834397, 950.669337)">
                            <polygon id="Fill-1" fill="#81D742" points="0 962.675652 9.96369983 962.675652 9.96369983 0 0 0"></polygon>
                            <polygon id="Fill-4" fill="#81D742" points="4.98910152 490.565114 261.492734 490.565114 261.492734 475.490965 4.98910152 475.490965"></polygon>
                            <polygon id="Fill-5" fill="#81D742" points="4.98910152 256.804906 205.988979 256.804906 205.988979 241.737477 4.98910152 241.737477"></polygon>
                            <polygon id="Fill-9" fill="#81D742" points="4.98910152 369.104969 137.932703 369.104969 137.932703 354.03754 4.98910152 354.03754"></polygon>
                            <polygon id="Fill-10" fill="#81D742" points="4.98910152 132.91865 137.932703 132.91865 137.932703 117.8445 4.98910152 117.8445"></polygon>
                            <polygon id="Fill-11" fill="#81D742" points="4.98910152 76.7686184 83.0453352 76.7686184 83.0453352 61.6944688 4.98910152 61.6944688"></polygon>
                            <polygon id="Fill-12" fill="#81D742" points="4.98910152 188.450392 83.0453352 188.450392 83.0453352 173.382963 4.98910152 173.382963"></polygon>
                            <polygon id="Fill-13" fill="#81D742" points="4.98910152 312.961658 83.0453352 312.961658 83.0453352 297.887509 4.98910152 297.887509"></polygon>
                            <polygon id="Fill-14" fill="#81D742" points="4.98910152 434.408362 83.0453352 434.408362 83.0453352 419.340933 4.98910152 419.340933"></polygon>
                        </g>
                    </g>
                </g>
            </g>
        </g>
    </g>
</svg>