<?xml version="1.0" encoding="UTF-8"?>
<svg width="881px" height="296px" viewBox="0 0 881 296" version="1.1" xmlns="http://www.w3.org/2000/svg" xmlns:xlink="http://www.w3.org/1999/xlink">
    <title>ruler</title>
    <g id="desktop" stroke="none" stroke-width="1" fill="none" fill-rule="evenodd">
        <g id="Home-Scrolly" transform="translate(-214.000000, -2700.000000)" fill="#E6F6D8">
            <g id="ruler" transform="translate(1540.500000, 2884.546353) rotate(-90.000000) translate(-1540.500000, -2884.546353) translate(1355.500000, 1558.046353)">
                <g id="Group-19" transform="translate(73.523122, 0.021928)">
                    <g id="ruler" transform="translate(0.295378, 0.000000)">
                        <polygon id="Fill-2" points="2.84217094e-14 15 294.509465 15 294.509465 -2.13162821e-14 2.84217094e-14 -2.13162821e-14"></polygon>
                        <polygon id="Fill-3-Copy" fill-opacity="0" points="-1.98951966e-13 880 294.509465 880 294.509465 865 -1.98951966e-13 865"></polygon>
                        <polygon id="Fill-4" points="0 455 256.510115 455 256.510115 440 0 440"></polygon>
                        <polygon id="Fill-5" points="-2.98427949e-13 235 201.004958 235 201.004958 220 -2.98427949e-13 220"></polygon>
                        <polygon id="Fill-6" points="0 675 201.004958 675 201.004958 660 0 660"></polygon>
                        <polygon id="Fill-7" points="-2.84217094e-13 785 132.946962 785 132.946962 770 -2.84217094e-13 770"></polygon>
                        <polygon id="Fill-8" points="-2.84217094e-13 565 132.946962 565 132.946962 550 -2.84217094e-13 550"></polygon>
                        <polygon id="Fill-9" points="-2.84217094e-13 345 132.946962 345 132.946962 330 -2.84217094e-13 330"></polygon>
                        <polygon id="Fill-10" points="-2.84217094e-13 125 132.946962 125 132.946962 110 -2.84217094e-13 110"></polygon>
                        <polygon id="Fill-11" points="0 70 78.0582064 70 78.0582064 55 0 55"></polygon>
                        <polygon id="Fill-12" points="0 180 78.0582064 180 78.0582064 165 0 165"></polygon>
                        <polygon id="Fill-13" points="-2.84217094e-14 290 78.0582064 290 78.0582064 275 -2.84217094e-14 275"></polygon>
                        <polygon id="Fill-14" points="-2.84217094e-14 400 78.0582064 400 78.0582064 385 -2.84217094e-14 385"></polygon>
                        <polygon id="Fill-15" points="-2.84217094e-14 510 78.0582064 510 78.0582064 495 -2.84217094e-14 495"></polygon>
                        <polygon id="Fill-16" points="-2.84217094e-14 620 78.0582064 620 78.0582064 605 -2.84217094e-14 605"></polygon>
                        <polygon id="Fill-17" points="-2.84217094e-14 730 78.0582064 730 78.0582064 715 -2.84217094e-14 715"></polygon>
                        <polygon id="Fill-18" points="-2.84217094e-14 840 78.0582064 840 78.0582064 825 -2.84217094e-14 825"></polygon>
                    </g>
                </g>
            </g>
        </g>
    </g>
</svg>