<?xml version="1.0" encoding="utf-8"?>
<!-- Generator: Adobe Illustrator 25.2.1, SVG Export Plug-In . SVG Version: 6.00 Build 0)  -->
<svg version="1.1" id="Layer_1" xmlns="http://www.w3.org/2000/svg" xmlns:xlink="http://www.w3.org/1999/xlink" x="0px" y="0px"
	 viewBox="0 0 141 39.8" style="enable-background:new 0 0 141 39.8;" xml:space="preserve">
<style type="text/css">
	.st0{fill-rule:evenodd;clip-rule:evenodd;fill:#FDFFF5;}
</style>
<g id="logo_x2F_light">
	<g id="YARD">
		<path id="Fill-5" class="st0" d="M127.6,27.3c-1.4,1.5-3.8,2.3-7.2,2.3h-2.3V9.2h2.7c3.3,0,5.6,0.8,6.9,2.4c1.3,1.6,2,4.2,2,7.8
			C129.7,23.1,129,25.8,127.6,27.3 M135.4,4.1c-3.2-2.7-8.1-4.1-14.6-4.1h-13.6v38.7h12.6c7.1,0,12.3-1.4,15.6-4.3
			c3.5-3.1,5.3-8.2,5.3-15.3C140.7,12.2,138.9,7.2,135.4,4.1"/>
		<path id="Fill-3" class="st0" d="M88.9,17.2h-6.3V8.7h6.5c3.1,0,4.7,1.4,4.7,4.1C93.8,15.8,92.2,17.2,88.9,17.2 M104.5,12.6
			c0-8.4-5-12.6-15.1-12.6H72.1v38.7h10.6V25.7h4.3l6.3,13h12l-7.7-14.8C102.2,21.9,104.5,18.1,104.5,12.6"/>
		<path id="Fill-7" class="st0" d="M47.8,20.9c1.3-4.6,2.2-7.9,2.5-9.7c0.3,1.8,1.2,5,2.5,9.7l0.3,1.1l1.6,5.4L53,29.1l-2.7-2.8
			l-2.7,2.8l-1.7-1.8l1.5-5.1L47.8,20.9z M45,0L30.9,38.7h11.5l1.7-5.5l0.2-0.6l1.1-1.1l2.2,2.3l2.7-2.8l2.7,2.8l2.2-2.3l1.2,1.2
			l0.2,0.7l1.6,5.3h11.6L55.8,0H45z"/>
		<path id="Fill-1" class="st0" d="M27.2,0l-3,5.9c-2.2,4.3-3.7,7.7-4.4,10c-0.7-2.3-2.2-5.7-4.4-10l-3-5.9H0l14.3,24.5v14.3h10.8
			V24.3L39.5,0H27.2z"/>
	</g>
</g>
</svg>
